<svg width="26" height="27" viewBox="0 0 26 27" fill="none" xmlns="http://www.w3.org/2000/svg">
<g clip-path="url(#clip0_1579_179)">
<path d="M14.1646 12.9971L18.5215 8.65375L4.44908 0.768982C3.51642 0.266637 2.6427 0.196132 1.87654 0.745481L14.1646 12.9971ZM19.2641 18.0823L23.7933 15.5426C24.6773 15.0491 25.162 14.3499 25.162 13.5744C25.162 12.8003 24.6773 12.0997 23.7947 11.6061L19.6943 9.31032L15.0781 13.9107L19.2641 18.0823ZM1.11921 1.81333C1.02491 2.10269 0.971872 2.42584 0.971872 2.77983V24.3792C0.971872 24.9388 1.09564 25.4206 1.31959 25.804L13.2497 13.9093L1.11921 1.81333ZM14.1646 14.82L2.30087 26.6486C2.52778 26.7352 2.77236 26.7808 3.0302 26.7808C3.4899 26.7808 3.96875 26.6456 4.45645 26.3754L18.0927 18.7418L14.1646 14.82Z" fill="white"/>
</g>
<defs>
<clipPath id="clip0_1579_179">
<rect width="24.3519" height="26.4393" fill="white" transform="translate(0.971886 0.341064)"/>
</clipPath>
</defs>
</svg>
