<svg width="29" height="26" viewBox="0 0 29 26" fill="none" xmlns="http://www.w3.org/2000/svg">
<g clip-path="url(#clip0_1579_186)">
<path d="M1.27609 19.201C1.35712 19.0714 1.4833 19.0622 1.65997 19.1745C5.69132 21.5012 10.0786 22.6711 14.818 22.6711C17.9806 22.6711 21.1008 22.0802 24.1837 20.9103L24.5317 20.7556C24.6845 20.6882 24.7907 20.6446 24.8558 20.6115C25.1069 20.5137 25.2889 20.5626 25.4376 20.7556C25.5731 20.9446 25.5386 21.1244 25.3048 21.2844C25.0219 21.4933 24.6407 21.7365 24.189 22.0049C22.8116 22.8231 21.2628 23.4564 19.5507 23.9098C17.9174 24.3469 16.2343 24.5726 14.543 24.5814C12.0339 24.5814 9.65492 24.1451 7.41145 23.2726C5.19816 22.4104 3.15935 21.1578 1.39298 19.5751C1.2814 19.4944 1.22694 19.4125 1.22694 19.3318C1.22694 19.2803 1.2482 19.234 1.2814 19.1878L1.27609 19.201ZM8.55377 12.3413C8.55377 11.2309 8.82873 10.2857 9.37598 9.49645C9.92589 8.71385 10.6737 8.12029 11.6381 7.71709C12.5227 7.34562 13.584 7.08255 14.8658 6.92127C15.2988 6.87236 16.0094 6.80758 16.991 6.72959V6.31978C16.991 5.2979 16.8795 4.60255 16.6616 4.25223C16.3269 3.77765 15.7982 3.53705 15.0637 3.53705H14.8645C14.3331 3.5886 13.8736 3.75121 13.4844 4.04336C13.0938 4.34179 12.8271 4.7728 12.7352 5.25428C12.6701 5.58477 12.5068 5.76588 12.2557 5.81743L9.45966 5.46843C9.18205 5.40101 9.04657 5.27014 9.04657 5.03747C9.04657 4.98856 9.05454 4.93965 9.07048 4.87487C9.34809 3.4498 10.0202 2.38826 11.0895 1.69688C12.1707 1.01739 13.4166 0.620801 14.8459 0.540161H15.4449C17.2766 0.540161 18.7245 1.01739 19.7539 1.96259C19.9066 2.12519 20.0554 2.29308 20.2055 2.48873C20.3383 2.67249 20.4552 2.83773 20.5163 2.98711C20.6 3.13385 20.685 3.35065 20.7342 3.61504C20.8019 3.89662 20.8511 4.08037 20.8843 4.1782C20.9148 4.29189 20.952 4.50869 20.9693 4.85769C20.9772 5.20404 20.9905 5.39969 20.9905 5.46711V11.2917C20.9905 11.7068 21.0556 12.0875 21.1725 12.4352C21.2894 12.7789 21.4036 13.0314 21.5205 13.1794L22.089 13.9211C22.1741 14.0386 22.2251 14.1772 22.2365 14.3216C22.2365 14.4564 22.1714 14.5701 22.0399 14.6653C20.7089 15.8247 19.977 16.4526 19.8628 16.5531C19.6808 16.7025 19.4471 16.7183 19.1655 16.6046C18.961 16.4332 18.7663 16.2505 18.5823 16.0573L18.2396 15.6727C18.1719 15.5894 18.0524 15.4426 17.8863 15.2073L17.5542 14.7275C16.6563 15.7057 15.777 16.3204 14.895 16.5689C14.3451 16.7342 13.681 16.8175 12.8641 16.8175C11.6341 16.8175 10.6046 16.4407 9.80502 15.6766C9.0107 14.9152 8.60956 13.8404 8.60956 12.4338L8.55245 12.3506L8.55377 12.3413ZM12.7126 11.8562C12.7126 12.4841 12.868 12.9825 13.1842 13.3619C13.4977 13.7386 13.932 13.9277 14.466 13.9277C14.5125 13.9277 14.5829 13.9171 14.6785 13.9039C14.7821 13.888 14.8259 13.8774 14.8658 13.8774C15.5459 13.7016 16.0639 13.268 16.4451 12.5793C16.6292 12.2679 16.7632 11.9298 16.8423 11.5772C16.9432 11.2229 16.9751 10.9242 16.9897 10.6968C17.011 10.4773 17.011 10.0979 17.011 9.58634V8.99014C16.0772 8.99014 15.3639 9.05491 14.8804 9.18579C13.4684 9.58634 12.7498 10.4773 12.7498 11.868L12.7113 11.8469V11.8562H12.7126ZM22.8687 19.6095C22.9019 19.542 22.9524 19.4878 23.0135 19.4204C23.4133 19.1547 23.8052 18.9683 24.1784 18.8705C24.7627 18.721 25.361 18.6319 25.9636 18.6048C26.119 18.5915 26.2744 18.6048 26.4232 18.6378C27.1392 18.7052 27.5828 18.8242 27.721 18.9987C27.7913 19.1018 27.8192 19.2512 27.8192 19.4323V19.5976C27.8192 20.1607 27.6638 20.8217 27.357 21.5831C27.0502 22.3446 26.6225 22.9593 26.0779 23.4365C25.9968 23.5013 25.9251 23.5344 25.86 23.5344C25.8268 23.5344 25.7923 23.5344 25.7617 23.5211C25.6608 23.4722 25.6422 23.3889 25.6887 23.2554C26.2877 21.866 26.5813 20.8931 26.5813 20.3458C26.5813 20.1779 26.5481 20.0457 26.483 19.9637C26.3249 19.7826 25.876 19.6769 25.1281 19.6769C24.8057 19.6817 24.4836 19.6989 24.1625 19.7284C23.76 19.7826 23.3894 19.8315 23.0547 19.8805C22.9564 19.8805 22.8913 19.862 22.8554 19.8315C22.8222 19.7985 22.8143 19.78 22.8315 19.7469C22.8315 19.7284 22.8395 19.7139 22.8554 19.6769V19.6121L22.8687 19.6095Z" fill="white"/>
</g>
<defs>
<clipPath id="clip0_1579_186">
<rect width="27.8308" height="25.0477" fill="white" transform="translate(0.607269 0.0368652)"/>
</clipPath>
</defs>
</svg>
