<svg width="21" height="21" viewBox="0 0 21 21" fill="none" xmlns="http://www.w3.org/2000/svg">
<g clip-path="url(#clip0_1579_193)">
<path d="M8.5259 11.7066C8.5259 11.3629 8.30171 11.1337 7.96542 11.1337H1.23965C0.903361 11.1337 0.679169 11.3629 0.679169 11.7066V17.4365C0.679169 17.7803 0.903361 18.0095 1.23965 18.1241L7.96542 18.9263C8.30171 18.9263 8.5259 18.6971 8.5259 18.4679V11.7066ZM10.2073 11.1337C9.87105 11.1337 9.64686 11.3629 9.64686 11.7066V18.4679C9.64686 18.8117 9.87105 19.0409 10.2073 19.1555L20.296 20.3014C20.6323 20.3014 20.8565 20.0722 20.8565 19.8431V11.8212C20.8565 11.4775 20.6323 11.2483 20.296 11.2483L10.2073 11.1337ZM8.5259 2.76806C8.5259 2.42426 8.30171 2.19507 7.96542 2.30967L1.23965 3.11185C0.903361 3.11185 0.679169 3.34104 0.679169 3.68483V9.4147C0.679169 9.75849 0.903361 9.98769 1.23965 9.98769H7.96542C8.30171 9.98769 8.5259 9.75849 8.5259 9.4147V2.76806ZM10.2073 2.08047C9.87105 2.08047 9.64686 2.42426 9.64686 2.76806V9.5293C9.64686 9.87309 9.87105 10.1023 10.2073 10.1023H20.296C20.6323 10.1023 20.8565 9.87309 20.8565 9.5293V1.50749C20.8565 1.16369 20.6323 0.9345 20.296 1.0491L10.2073 2.08047Z" fill="white"/>
</g>
<defs>
<clipPath id="clip0_1579_193">
<rect width="20.1773" height="19.4816" fill="white" transform="translate(0.679169 0.819946)"/>
</clipPath>
</defs>
</svg>
