<svg width="24" height="27" viewBox="0 0 24 27" fill="none" xmlns="http://www.w3.org/2000/svg">
<g clip-path="url(#clip0_1579_172)">
<path d="M20.0987 13.9722C20.0856 11.805 21.1006 10.1717 23.1502 8.96738C22.0039 7.37855 20.2695 6.50469 17.9833 6.33627C15.8187 6.17103 13.4504 7.5565 12.5832 7.5565C11.6668 7.5565 9.5711 6.39347 7.92215 6.39347C4.51916 6.44431 0.902649 9.01822 0.902649 14.255C0.902649 15.8025 1.19499 17.4009 1.77968 19.0469C2.56145 21.2141 5.37976 26.524 8.31961 26.4382C9.85687 26.4032 10.9441 25.3832 12.9445 25.3832C14.8858 25.3832 15.891 26.4382 17.6056 26.4382C20.5717 26.3969 23.1207 21.57 23.863 19.3965C19.8852 17.582 20.0987 14.0834 20.0987 13.9722ZM16.6464 4.28032C18.3118 2.36736 18.1607 0.626001 18.1114 0C16.6399 0.0826194 14.9384 0.969189 13.9694 2.05913C12.9018 3.22851 12.2744 4.67435 12.4091 6.30449C13.9989 6.42207 15.4508 5.63083 16.6464 4.28032Z" fill="white"/>
</g>
<defs>
<clipPath id="clip0_1579_172">
<rect width="22.9604" height="26.4392" fill="white" transform="translate(0.902649)"/>
</clipPath>
</defs>
</svg>
